<?xml version="1.0" encoding="UTF-8"?>
<svg id="Layer_1" data-name="Layer 1" xmlns="http://www.w3.org/2000/svg" version="1.1" viewBox="0 0 4096 4096">
  <defs>
    <style>
      .cls-1 {
        fill: none;
        stroke: #231f20;
        stroke-miterlimit: 10;
        stroke-width: 100px;
      }
    </style>
  </defs>
  <path class="cls-1" d="M711.1,2503.4c-79.5-482.4,125.9-997.9,552.6-1250.2,57-33.7,118.1-61.7,177.6-90.7,245.5-119.5,582-288.5,635.4-589.5,12.9-72.6-23.1-196.2,75.8-212.5l6.4.2c36,2.7,57.8,31.3,81.9,55l109.4,115c331.2,379.3,554.8,911,522,1421.7l-9.1,103.7c111-50.2,264.5-220.5,324.8-320.5,27.6-45.7,52.7-156.4,140-105.2,69.8,40.9,102.1,377.7,106.7,453.4l1.6,115.7c0,42.6,1.5,85.8-1.1,128.3-36.3,609.6-453.9,1108.9-1047,1261.2-74.4,12.5-151.4,28.3-226.3,37.2-90.3,9.7-183.1,4.3-272.9-5.4-589.5-70-1080.6-527.6-1177.8-1117.4ZM1821.2,2682.9c-12.1,13.5-22.3,30.7-35.1,43.2-21.8,21.3-69.9,14.7-89.3-7-17.8-20-30.4-59.6-63.9-29.7-59,52.4-81.9,271.6-71.8,360.5,23.5,206.5,195.8,372,400.7,397.7,134.6,15,264.1-16.6,370.9-102.5,385.5-310.1,39.7-1148.8-270.2-1315.8-9.3,1.3-19.1,3.2-25.3,10.9-13.1,16.6-11.8,45.6-13.6,70.7-12.3,198.7-76.2,430.5-202.3,572.1Z"/>
</svg>